REM DIRINDEX 1\2\6,1\2\7,1\2\8,1\2\9,1\3\10,1\3\11,1\4\12,1\4\13,1\4\14,1\5\15,1\5\16,1\5\17
REM DIRNAME folder01,folder02,folder03,folder04,folder05,folder06,folder07,folder08,folder09,folder10,folder11,folder12,folder13,folder14,folder15,folder16,folder17
TITLE ""
FILE "1400_2_sec04_0334_0349.mp3" MP3
  TRACK 01 AUDIO
    TITLE "0:"
    INDEX 01 00:00:00
  TRACK 02 AUDIO
    TITLE "13:cjc029_2246"
    INDEX 01 00:00:19
  TRACK 03 AUDIO
    TITLE "0:"
    INDEX 01 00:01:32
  TRACK 04 AUDIO
    TITLE "14:cjc029_2247"
    INDEX 01 00:01:36
  TRACK 05 AUDIO
    TITLE "0:"
    INDEX 01 00:04:07
  TRACK 06 AUDIO
    TITLE "13:cjc029_2248"
    INDEX 01 00:04:64
  TRACK 07 AUDIO
    TITLE "0:"
    INDEX 01 00:06:16
  TRACK 08 AUDIO
    TITLE "14:cjc029_2249"
    INDEX 01 00:06:24
  TRACK 09 AUDIO
    TITLE "0:"
    INDEX 01 00:09:10
  TRACK 10 AUDIO
    TITLE "13:cjc029_2250"
    INDEX 01 00:09:67
  TRACK 11 AUDIO
    TITLE "0:"
    INDEX 01 00:11:07
  TRACK 12 AUDIO
    TITLE "14:cjc029_2251"
    INDEX 01 00:11:13
  TRACK 13 AUDIO
    TITLE "0:"
    INDEX 01 00:12:50
  TRACK 14 AUDIO
    TITLE "13:cjc029_2252"
    INDEX 01 00:13:30
  TRACK 15 AUDIO
    TITLE "0:"
    INDEX 01 00:14:37
  TRACK 16 AUDIO
    TITLE "14:cjc029_2253"
    INDEX 01 00:14:39
  TRACK 17 AUDIO
    TITLE "0:"
    INDEX 01 00:15:46
  TRACK 18 AUDIO
    TITLE "13:cjc029_2254"
    INDEX 01 00:16:28
  TRACK 19 AUDIO
    TITLE "0:"
    INDEX 01 00:17:67
  TRACK 20 AUDIO
    TITLE "14:cjc029_2255"
    INDEX 01 00:17:72
  TRACK 21 AUDIO
    TITLE "0:"
    INDEX 01 00:19:40
  TRACK 22 AUDIO
    TITLE "13:cjc029_2256"
    INDEX 01 00:20:20
  TRACK 23 AUDIO
    TITLE "0:"
    INDEX 01 00:21:55
  TRACK 24 AUDIO
    TITLE "14:cjc029_2257"
    INDEX 01 00:21:58
  TRACK 25 AUDIO
    TITLE "0:"
    INDEX 01 00:25:25
  TRACK 26 AUDIO
    TITLE "13:cjc029_2258"
    INDEX 01 00:26:09
  TRACK 27 AUDIO
    TITLE "0:"
    INDEX 01 00:27:22
  TRACK 28 AUDIO
    TITLE "14:cjc029_2259"
    INDEX 01 00:27:28
  TRACK 29 AUDIO
    TITLE "0:"
    INDEX 01 00:28:37
  TRACK 30 AUDIO
    TITLE "13:cjc029_2260"
    INDEX 01 00:29:19
  TRACK 31 AUDIO
    TITLE "0:"
    INDEX 01 00:30:38
  TRACK 32 AUDIO
    TITLE "14:cjc029_2261"
    INDEX 01 00:30:48
  TRACK 33 AUDIO
    TITLE "0:"
    INDEX 01 00:34:43
  TRACK 34 AUDIO
    TITLE "13:cjc029_2262"
    INDEX 01 00:35:27
  TRACK 35 AUDIO
    TITLE "0:"
    INDEX 01 00:36:31
  TRACK 36 AUDIO
    TITLE "14:cjc029_2263"
    INDEX 01 00:36:38
  TRACK 37 AUDIO
    TITLE "0:"
    INDEX 01 00:39:51
  TRACK 38 AUDIO
    TITLE "12:cjc029_2264"
    INDEX 01 00:41:24
  TRACK 39 AUDIO
    TITLE "0:"
    INDEX 01 00:42:55
  TRACK 40 AUDIO
    TITLE "13:cjc029_2265"
    INDEX 01 00:43:62
  TRACK 41 AUDIO
    TITLE "0:"
    INDEX 01 00:45:10
  TRACK 42 AUDIO
    TITLE "14:cjc029_2266"
    INDEX 01 00:45:16
  TRACK 43 AUDIO
    TITLE "0:"
    INDEX 01 00:46:35
  TRACK 44 AUDIO
    TITLE "13:cjc029_2267"
    INDEX 01 00:47:17
  TRACK 45 AUDIO
    TITLE "0:"
    INDEX 01 00:48:34
  TRACK 46 AUDIO
    TITLE "14:cjc029_2268"
    INDEX 01 00:48:42
  TRACK 47 AUDIO
    TITLE "0:"
    INDEX 01 00:50:64
  TRACK 48 AUDIO
    TITLE "13:cjc029_2269"
    INDEX 01 00:51:46
  TRACK 49 AUDIO
    TITLE "0:"
    INDEX 01 00:52:59
  TRACK 50 AUDIO
    TITLE "14:cjc029_2270"
    INDEX 01 00:52:61
  TRACK 51 AUDIO
    TITLE "0:"
    INDEX 01 00:56:59
  TRACK 52 AUDIO
    TITLE "13:cjc029_2271"
    INDEX 01 00:57:41
  TRACK 53 AUDIO
    TITLE "0:"
    INDEX 01 00:58:46
  TRACK 54 AUDIO
    TITLE "14:cjc029_2272"
    INDEX 01 00:58:54
  TRACK 55 AUDIO
    TITLE "0:"
    INDEX 01 01:01:58
  TRACK 56 AUDIO
    TITLE "13:cjc029_2273"
    INDEX 01 01:02:44
  TRACK 57 AUDIO
    TITLE "0:"
    INDEX 01 01:03:65
  TRACK 58 AUDIO
    TITLE "14:cjc029_2274"
    INDEX 01 01:03:73
  TRACK 59 AUDIO
    TITLE "0:"
    INDEX 01 01:07:25
  TRACK 60 AUDIO
    TITLE "13:cjc029_2275"
    INDEX 01 01:08:07
  TRACK 61 AUDIO
    TITLE "0:"
    INDEX 01 01:09:20
  TRACK 62 AUDIO
    TITLE "14:cjc029_2276"
    INDEX 01 01:09:26
  TRACK 63 AUDIO
    TITLE "0:"
    INDEX 01 01:11:56
  TRACK 64 AUDIO
    TITLE "13:cjc029_2277"
    INDEX 01 01:12:36
  TRACK 65 AUDIO
    TITLE "0:"
    INDEX 01 01:13:44
  TRACK 66 AUDIO
    TITLE "14:cjc029_2278"
    INDEX 01 01:13:47
  TRACK 67 AUDIO
    TITLE "0:"
    INDEX 01 01:14:70
